<?xml version="1.0" encoding="UTF-8"?>
<svg id="a" data-name="QRYomi-icon" xmlns="http://www.w3.org/2000/svg" width="128" height="128" viewBox="0 0 128 128">
  <defs>
    <style>
      .f {
        fill: #fff;
      }

      .f, .g {
        fill-rule: evenodd;
      }

      .h {
        fill: none;
        stroke: #000;
        stroke-linejoin: round;
        stroke-width: 4px;
      }
    </style>
  </defs>
  <path id="b" data-name="bg" class="f" d="M0,10.4C0,4.6,4.6,0,10.4,0h107.3c2.8,0,5.4,1.1,7.3,3,1.9,1.9,3,4.6,3,7.3v107.3c0,5.7-4.6,10.4-10.4,10.4H10.4c-5.8,0-10.4-4.6-10.4-10.4V10.4Z"/>
  <g id="c" data-name="frames">
    <polygon class="g" points="114 114 74 114 82.6 105.4 105.8 105.4 105.8 82.2 114 74 114 114"/>
    <polygon class="g" points="14.001 114 54 114 45.4 105.4 22.2 105.4 22.2 82.2 14 74 14 114 14.001 114"/>
    <polygon class="g" points="114 14 74 14 82.6 22.6 105.8 22.6 105.8 45.8 114 54 114 14"/>
    <polygon class="g" points="14.001 14 54 14 45.4 22.6 22.2 22.6 22.2 45.8 14 54 14 14 14.001 14"/>
  </g>
  <g>
    <rect class="h" x="32" y="32" width="24" height="24"/>
    <rect x="34" y="44" width="10" height="10"/>
  </g>
  <g>
    <rect class="h" x="72" y="32" width="24" height="24"/>
    <rect x="73.5" y="43.5" width="11" height="11"/>
  </g>
  <g>
    <path class="h" d="M32,72h24v24h-24v-24Z"/>
    <rect x="32" y="86" width="24" height="10"/>
  </g>
  <g id="d" data-name="mesh">
    <rect x="89" y="89" width="10" height="10"/>
    <rect x="89" y="69" width="10" height="10"/>
    <rect x="69" y="89" width="10" height="10"/>
    <rect x="69" y="69" width="10" height="10"/>
    <rect x="79" y="79" width="10" height="10"/>
  </g>
</svg>