<?xml version="1.0" encoding="UTF-8"?>
<svg id="b" data-name="QRYomi-logo" xmlns="http://www.w3.org/2000/svg" width="512" height="128" viewBox="0 0 512 128">
  <defs>
    <style>
      .f {
        fill-rule: evenodd;
      }

      .g {
        fill: #fff;
      }

      .h {
        fill: none;
        stroke: #000;
        stroke-linejoin: round;
        stroke-width: 4px;
      }

      .i {
        fill: #1a1a1a;
      }
    </style>
  </defs>
  <rect class="g" width="512" height="128" rx="15" ry="15"/>
  <g>
    <path class="i" d="M164.463,97.35c-15.801-3.5-26.002-17.201-26.002-38.202,0-24.401,13.801-38.202,34.104-38.202s34.102,13.9,34.102,38.202c0,19.802-9.102,33.103-23.402,37.503,3.4,5.1,10.102,7,16.102,7,3.201,0,6.1-.6,8.4-1.4l3.201,13.001c-2.9,1.5-7.701,2.5-13.602,2.5-16.201,0-27.502-8.5-32.902-20.401ZM188.465,59.147c0-14.4-6.102-22.901-15.9-22.901s-15.803,8.501-15.803,22.901c0,15.501,6.002,24.401,15.803,24.401s15.9-8.9,15.9-24.401Z"/>
    <path class="i" d="M220.461,22.246h27.303c15.9,0,29.102,5.5,29.102,23.501,0,10.9-5.102,17.901-12.801,21.501l16.602,29.502h-20.002l-13.701-26.201h-8.6v26.201h-17.902V22.246ZM246.363,56.447c8.5,0,13.1-3.7,13.1-10.7s-4.6-9.301-13.1-9.301h-8v20.001h8Z"/>
    <path class="i" d="M299.859,75.709l-17.92-38.561h15.201l4.959,13.28c1.6,4.48,3.121,8.641,4.801,13.28h.32c1.68-4.64,3.279-8.8,4.959-13.28l4.961-13.28h14.961l-18.002,38.561v21.041h-14.24v-21.041Z"/>
    <path class="i" d="M334.5,73.949c0-15.04,10.719-23.84,22.32-23.84,11.52,0,22.24,8.8,22.24,23.84,0,15.121-10.721,23.921-22.24,23.921-11.602,0-22.32-8.8-22.32-23.921ZM364.5,73.949c0-7.52-2.4-12.32-7.68-12.32-5.361,0-7.76,4.801-7.76,12.32,0,7.601,2.398,12.4,7.76,12.4,5.279,0,7.68-4.8,7.68-12.4Z"/>
    <path class="i" d="M388.018,51.229h11.602l1.039,5.761h.24c3.76-3.761,7.68-6.88,13.84-6.88,6.32,0,10.16,2.64,12.48,7.52,3.92-4,8.16-7.52,14.24-7.52,9.922,0,14.24,7.119,14.24,18.48v28.16h-14.24v-26.4c0-6.32-1.6-8.08-5.199-8.08-2.08,0-4.561,1.279-7.281,4.08v30.4h-14.24v-26.4c0-6.32-1.68-8.08-5.279-8.08-2.08,0-4.561,1.279-7.201,4.08v30.4h-14.24v-45.521Z"/>
    <path class="i" d="M466.018,37.549c0-4.4,3.119-7.28,7.92-7.28,4.721,0,7.92,2.88,7.92,7.28,0,4.48-3.199,7.359-7.92,7.359-4.801,0-7.92-2.879-7.92-7.359ZM466.816,51.229h14.24v45.521h-14.24v-45.521Z"/>
  </g>
  <g id="c" data-name="QRYomi-icon">
    <g id="d" data-name="frames">
      <polygon class="f" points="114 114 74 114 82.6 105.4 105.8 105.4 105.8 82.2 114 74 114 114"/>
      <polygon class="f" points="14.001 114 54 114 45.4 105.4 22.2 105.4 22.2 82.2 14 74 14 114 14.001 114"/>
      <polygon class="f" points="114 14 74 14 82.6 22.6 105.8 22.6 105.8 45.8 114 54 114 14"/>
      <polygon class="f" points="14.001 14 54 14 45.4 22.6 22.2 22.6 22.2 45.8 14 54 14 14 14.001 14"/>
    </g>
    <g>
      <rect class="h" x="32" y="32" width="24" height="24"/>
      <rect x="34" y="44" width="10" height="10"/>
    </g>
    <g>
      <rect class="h" x="72" y="32" width="24" height="24"/>
      <rect x="73.5" y="43.5" width="11" height="11"/>
    </g>
    <g>
      <path class="h" d="M32,72h24v24h-24v-24Z"/>
      <rect x="32" y="86" width="24" height="10"/>
    </g>
    <g id="e" data-name="mesh">
      <rect x="89" y="89" width="10" height="10"/>
      <rect x="89" y="69" width="10" height="10"/>
      <rect x="69" y="89" width="10" height="10"/>
      <rect x="69" y="69" width="10" height="10"/>
      <rect x="79" y="79" width="10" height="10"/>
    </g>
  </g>
</svg>