<?xml version="1.0" encoding="UTF-8"?><svg id="a" xmlns="http://www.w3.org/2000/svg" viewBox="0 0 400 100"><g><rect width="400" height="100" rx="12" ry="12" fill="#fff"/><g><path d="M9.43,8.471H41.57l-6.91,6.91H16.018v18.642l-6.589,6.589V8.471h0ZM90.586,90.913H58.444l6.91-6.91h18.642v-18.642l6.589-6.589v32.141Z" fill-rule="evenodd"/><path d="M25.5,24.541h18.32v18.32H25.5s0-18.32,0-18.32Zm31.177,0h18.32v18.32h-18.32s0-18.32,0-18.32Z" fill="none" stroke="#000" stroke-linejoin="round" stroke-width="3.214"/><path d="M25.5,56.362h18.32v18.481H25.5v-18.481Z" fill="none" stroke="#000" stroke-linejoin="round" stroke-width="2.547"/><path d="M26.946,33.702h7.714v7.714h-7.714v-7.714Zm31.177,0h7.714v7.714h-7.714v-7.714ZM25.5,67.29h18.573v7.553H25.5v-7.553Zm44.195,2.249h7.714v7.714h-7.714v-7.714Zm0-15.588h7.714v7.795h-7.714v-7.795Zm-15.428,0h7.714v7.795h-7.714v-7.795Zm7.714,7.795h7.714v7.714h-7.714v-7.714Zm-7.714,7.713h7.714v7.714h-7.714v-7.714Z" fill-rule="evenodd"/><path d="M9.43,90.913H41.57l-6.91-6.91H16.018v-18.642l-6.589-6.589v32.141h0ZM90.586,8.471H58.444l6.91,6.91h18.642v18.642l6.589,6.589V8.471Z" fill-rule="evenodd"/></g></g><g><path d="M125.234,74.785c-12.64-2.801-20.8-13.761-20.8-30.561,0-19.521,11.04-30.561,27.281-30.561s27.28,11.121,27.28,30.561c0,15.84-7.28,26.481-18.72,30,2.72,4.08,8.08,5.601,12.88,5.601,2.56,0,4.88-.48,6.72-1.12l2.56,10.4c-2.32,1.199-6.16,2-10.88,2-12.96,0-22-6.801-26.321-16.32Zm19.201-30.561c0-11.521-4.88-18.32-12.72-18.32s-12.641,6.8-12.641,18.32c0,12.4,4.8,19.52,12.641,19.52s12.72-7.12,12.72-19.52Z"/><path d="M170.034,14.703h21.84c12.72,0,23.28,4.4,23.28,18.801,0,8.72-4.08,14.32-10.24,17.2l13.28,23.601h-16l-10.96-20.961h-6.88v20.961h-14.32V14.703Zm20.72,27.361c6.8,0,10.48-2.96,10.48-8.56s-3.68-7.44-10.48-7.44h-6.4v16h6.4Z"/><path d="M232.692,58.73l-13.439-28.919h11.399l3.72,9.959c1.2,3.36,2.34,6.48,3.601,9.96h.239c1.261-3.48,2.46-6.6,3.72-9.96l3.721-9.959h11.219l-13.499,28.919v15.779h-10.68v-15.779Z"/><path d="M258.672,57.41c0-11.28,8.04-17.879,16.74-17.879,8.64,0,16.679,6.6,16.679,17.879,0,11.339-8.039,17.939-16.679,17.939-8.7,0-16.74-6.6-16.74-17.939Zm22.5,0c0-5.64-1.801-9.24-5.76-9.24-4.021,0-5.82,3.6-5.82,9.24,0,5.7,1.8,9.299,5.82,9.299,3.959,0,5.76-3.6,5.76-9.299Z"/><path d="M298.812,40.37h8.699l.78,4.32h.18c2.819-2.82,5.76-5.16,10.38-5.16,4.739,0,7.619,1.98,9.359,5.64,2.939-3,6.119-5.64,10.68-5.64,7.439,0,10.68,5.34,10.68,13.859v21.119h-10.68v-19.799c0-4.74-1.2-6.06-3.9-6.06-1.56,0-3.42,.96-5.459,3.06v22.799h-10.68v-19.799c0-4.74-1.261-6.06-3.96-6.06-1.561,0-3.42,.96-5.4,3.06v22.799h-10.679V40.37Z"/><path d="M357.312,30.111c0-3.3,2.34-5.459,5.939-5.459,3.54,0,5.94,2.16,5.94,5.459,0,3.36-2.4,5.52-5.94,5.52-3.6,0-5.939-2.16-5.939-5.52Zm.601,10.26h10.679v34.139h-10.679V40.37Z"/></g></svg>