<svg xmlns="http://www.w3.org/2000/svg" viewBox="0 0 128 128"><defs><clipPath id="a"><path fill="none" d="M0 0h128v128H0z"/></clipPath></defs><g clip-path="url(#a)"><path d="M0 10.4C0 4.6 4.6 0 10.4 0h107.3c2.8 0 5.4 1.1 7.3 3 1.9 1.9 3 4.6 3 7.3v107.3c0 5.7-4.6 10.4-10.4 10.4H10.4C4.6 128 0 123.4 0 117.6V10.4Z" fill="#fff" fill-rule="evenodd"/><path d="M11.72 10.843h41.14l-8.845 8.845H20.153V43.55l-8.434 8.434V10.843h.001ZM115.6 116.369H74.459l8.845-8.845h23.862V83.662l8.434-8.434v41.141Z" fill-rule="evenodd"/><path d="M32.29 31.413h23.45v23.45H32.29v-23.45ZM72.197 31.413h23.45v23.45h-23.45v-23.45Z" fill="none" stroke="#000" stroke-linejoin="round" stroke-width="4.114"/><path d="M32.29 72.143h23.45v23.656H32.29V72.143Z" fill="none" stroke="#000" stroke-linejoin="round" stroke-width="3.26"/><path d="M34.141 43.138h9.874v9.874h-9.874v-9.874ZM74.048 43.138h9.874v9.874h-9.874v-9.874ZM32.29 86.131h23.774v9.668H32.29v-9.668ZM88.859 89.01h9.874v9.874h-9.874V89.01ZM88.859 69.057h9.874v9.977h-9.874v-9.977ZM69.111 69.057h9.874v9.977h-9.874v-9.977ZM78.985 79.034h9.874v9.874h-9.874v-9.874ZM69.111 88.907h9.874v9.874h-9.874v-9.874Z" fill-rule="evenodd"/><path d="M11.72 116.369h41.14l-8.845-8.845H20.153V83.662l-8.434-8.434v41.141h.001ZM115.6 10.843H74.459l8.845 8.845h23.862V43.55l8.434 8.434V10.843Z" fill-rule="evenodd"/></g></svg>